<?xml version="1.0" encoding="UTF-8"?>
<svg width="112px" height="31px" viewBox="0 0 112 31" version="1.1" xmlns="http://www.w3.org/2000/svg" xmlns:xlink="http://www.w3.org/1999/xlink">
    <!-- Generator: Sketch 49.1 (51147) - http://www.bohemiancoding.com/sketch -->
    <title>Page 1 Copy 2</title>
    <desc>Created with Sketch.</desc>
    <defs></defs>
    <g id="Page-1" stroke="none" stroke-width="1" fill="none" fill-rule="evenodd">
        <g id="Page-1-Copy-2" fill="#FFFFFF">
            <path d="M80.1257129,27.6018441 C80.4626031,27.6018441 80.6575122,27.3923245 80.6575122,27.0276676 C80.6575122,26.6760794 80.4626031,26.4733049 80.1257129,26.4733049 L79.4053053,26.4733049 L79.4053053,27.6018441 L80.1257129,27.6018441 Z M79.9908727,28.7910892 L79.4053053,28.7910892 L79.4053053,30.0208049 L77.8426721,30.0208049 L77.8426721,25.2840598 L80.1257129,25.2840598 C81.4048038,25.2840598 82.1390734,25.8987069 82.1390734,26.9800304 C82.1390734,27.6692951 81.8765342,28.1827657 81.3917818,28.4803931 L82.3209605,30.0208049 L80.5566972,30.0208049 L79.9908727,28.7910892 Z M72.7888978,26.8451284 L72.2902834,28.2299814 L73.2736502,28.2299814 L72.7888978,26.8451284 Z M71.8866031,29.3517755 L71.644227,30.0208049 L70.0412677,30.0208049 L72.0344652,25.2840598 L73.6370044,25.2840598 L75.5558508,30.0208049 L73.8928226,30.0208049 L73.6575875,29.3517755 L71.8866031,29.3517755 Z M65.0135373,28.8045794 L65.5995248,28.8045794 C66.1653492,28.8045794 66.5287034,28.3585598 66.5287034,27.6629716 C66.5287034,26.9597951 66.1317442,26.5002853 65.5251737,26.5002853 L65.0135373,26.5002853 L65.0135373,28.8045794 Z M65.5591987,25.2840598 C67.1142708,25.2840598 68.1245216,26.2094029 68.1245216,27.6490598 C68.1245216,29.0882951 67.0945279,30.0208049 65.4987097,30.0208049 L63.4517442,30.0208049 L63.4517442,25.2840598 L65.5591987,25.2840598 Z M59.4544276,30.0208049 L57.5960702,27.6018441 L57.5960702,30.0208049 L56.1749981,30.0208049 L56.1749981,25.2840598 L57.4818132,25.2840598 L59.3464715,27.7165108 L59.3464715,25.2840598 L60.7604025,25.2840598 L60.7604025,30.0208049 L59.4544276,30.0208049 Z M51.0737567,26.4733049 L51.0737567,27.0542265 L53.2824464,27.0542265 L53.2824464,28.2434716 L51.0737567,28.2434716 L51.0737567,28.8319814 L53.5651486,28.8319814 L53.5651486,30.0208049 L49.5111235,30.0208049 L49.5111235,25.2840598 L53.5042395,25.2840598 L53.5042395,26.4733049 L51.0737567,26.4733049 Z M47.0894621,28.7168931 L47.0894621,30.0208049 L43.5609354,30.0208049 L43.5609354,25.2840598 L45.1231486,25.2840598 L45.1231486,28.7168931 L47.0894621,28.7168931 Z M38.5067411,26.8451284 L38.0081266,28.2299814 L38.9910734,28.2299814 L38.5067411,26.8451284 Z M37.6040263,29.3517755 L37.3620702,30.0208049 L35.759531,30.0208049 L37.7523085,25.2840598 L39.3548476,25.2840598 L41.2741141,30.0208049 L39.6106658,30.0208049 L39.3754307,29.3517755 L37.6040263,29.3517755 Z M33.896553,26.1014814 L32.9942583,27.1760598 C32.7115561,26.7907461 32.2868727,26.5407559 31.9239386,26.5407559 C31.357694,26.5407559 30.9477129,26.9939422 30.9477129,27.6220794 C30.9477129,28.2573833 31.357694,28.7168931 31.9239386,28.7168931 C32.2604088,28.7168931 32.6846721,28.5073735 32.9942583,28.1760206 L33.896553,29.1426775 C33.3710545,29.7168539 32.569995,30.0882559 31.8428665,30.0882559 C30.3953304,30.0882559 29.3447536,29.0545696 29.3447536,27.6427363 C29.3447536,26.2502951 30.4222144,25.2368441 31.9033555,25.2368441 C32.623763,25.2368441 33.4118006,25.5745206 33.896553,26.1014814 Z M69.6002019,14.0264912 L73.6298633,14.0264912 L73.6298633,4.57703039 L69.6002019,4.57703039 L69.6002019,14.0264912 Z M69.6002019,23.058599 L65.0803273,23.058599 L65.0803273,0.57255 L78.150158,0.57255 L78.150158,18.03055 L76.4724276,18.03055 L78.1476376,23.058599 L73.9398696,23.058599 L72.2646596,18.03055 L69.6002019,18.03055 L69.6002019,23.058599 Z M2.89340564,0.57255 L0.343205016,0.57255 L2.89340564,5.00450098 L2.89340564,30.0882559 L15.9632364,30.0882559 L15.9632364,16.0285206 L11.4429417,18.2400696 L11.4429417,26.0837755 L7.41328025,26.0837755 L7.41328025,12.9068049 L12.3859824,12.9068049 L12.3859824,8.90232451 L7.41328025,8.90232451 L7.41328025,4.57703039 L11.4429417,4.57703039 L11.4429417,7.16799118 L15.9149292,4.57703039 L15.9632364,4.57703039 L15.9632364,4.54878529 L15.9632364,0.57255 L6.91550596,0.57255 L2.89340564,0.57255 Z M109.243619,9.1000402 L109.243619,4.18497157 L111.322509,0.57255 L109.243619,0.57255 L104.750208,0.57255 L96.1737881,0.57255 L96.1737881,10.8811676 L104.723744,15.1272069 L104.723744,26.0837755 L100.694083,26.0837755 L100.694083,18.2400696 L96.1737881,16.0285206 L96.1737881,30.0882559 L109.243619,30.0882559 L109.243619,12.9042755 L100.694083,8.65781471 L100.694083,4.57703039 L104.723744,4.57703039 L104.723744,6.88849118 L109.243619,9.1000402 Z M80.6268476,4.57703039 L84.9018257,4.57703039 L84.9018257,23.058599 L89.4221204,23.058599 L89.4221204,4.57703039 L93.6970984,4.57703039 L93.6970984,0.57255 L80.6268476,0.57255 L80.6268476,4.57703039 Z M54.0532614,19.0541186 L58.0829229,19.0541186 L58.0829229,4.57703039 L54.0532614,4.57703039 L54.0532614,19.0541186 Z M62.6032176,23.058599 L49.5333868,23.058599 L49.5333868,0.57255 L62.6032176,0.57255 L62.6036376,0.57255 L62.6036376,23.058599 L62.6032176,23.058599 Z M38.5071611,14.0264912 L42.5364025,14.0264912 L42.5364025,4.57703039 L38.5071611,4.57703039 L38.5071611,14.0264912 Z M38.5071611,23.058599 L33.9864464,23.058599 L33.9864464,0.57255 L47.0566972,0.57255 L47.0566972,18.03055 L38.5071611,18.03055 L38.5071611,23.058599 Z M31.5101768,23.058599 L18.439506,23.058599 L18.439506,14.5306873 L22.9602207,16.7422363 L22.9602207,19.0541186 L26.9894621,19.0541186 L26.9894621,15.0315108 L18.439506,10.8402755 L18.439506,0.57255 L31.5101768,0.57255 L31.5101768,9.1000402 L26.9894621,6.88849118 L26.9894621,4.57703039 L22.9602207,4.57703039 L22.9602207,8.59963824 L31.5101768,12.790452 L31.5101768,19.0541186 L31.5101768,23.058599 Z" id="Fill-3"></path>
        </g>
    </g>
</svg>