<svg id="Capa_1" data-name="Capa 1" xmlns="http://www.w3.org/2000/svg" viewBox="0 0 180.23 153.14"><defs><style>.cls-1{fill:#fff;}</style></defs><title>Mesa de trabajo 3dark</title><path class="cls-1" d="M0,87V10C2.22,6.37,4.52,2.8,8.87,1.39,10.55.84,12.29.46,14,0H89a3.07,3.07,0,0,0,.83.53c9.15,2.4,12.38,6.53,12.39,15.93,0,4,0,7.91,0,12.31h5.9q26.48,0,53,0a22,22,0,0,1,5.91.61c8.15,2.34,13.21,9.2,13.21,17.84q0,49.47,0,98.93a20.66,20.66,0,0,1-.05,2.49c-.33,3-2,4.63-4.91,4.46a11.45,11.45,0,0,1-4.66-1.43c-5.26-2.87-10.5-5.77-15.59-8.92a17.66,17.66,0,0,0-9.87-2.69c-29.14.1-58.29,0-87.43,0-1.5,0-3,.05-4.5,0-7.76-.48-14.74-5.54-16.94-12.67A31.66,31.66,0,0,1,35,118.6c-.14-11,0-22-.07-33,0-1.75-.18-3.5-.26-5-7.79-1.38-14.48-.47-20.44,4.09-1.44,1.1-3.25,1.71-4.73,2.77C6.17,89.84,3.05,89.62,0,87Zm169.75,51.73v-3.18q0-43,0-85.94a16,16,0,0,0-.54-4.42c-1.08-3.79-3.65-5.73-7.63-6-.83,0-1.66,0-2.49,0H56.14a27.08,27.08,0,0,0-3,0,7.44,7.44,0,0,0-7,7.08C46,47.66,46,49,46,50.33c0,22.65.16,45.3-.1,68-.09,7.86,2.58,10.85,11,10.78,29.81-.25,59.62,0,89.43-.16A20.67,20.67,0,0,1,158.17,132C161.75,134.34,165.54,136.31,169.75,138.73ZM10.23,74.31a14.88,14.88,0,0,0,2.27-1.06A23.35,23.35,0,0,1,29,68.9c1.88.17,4,.61,5.77-.81.08-.87.2-1.7.21-2.52,0-5.66-.06-11.32,0-17,.2-12.36,7.77-19.8,20.06-19.81q16,0,32,0c1.45,0,2.9-.14,4.75-.23,0-4.44.12-8.58,0-12.7-.14-3.25-1.46-4.4-4.66-4.61-.83-.06-1.66,0-2.5,0H17.63c-1.17,0-2.34,0-3.5,0a3.82,3.82,0,0,0-3.73,3.41,20.25,20.25,0,0,0-.17,4q0,25.47,0,51Z"/><path class="cls-1" d="M107.49,75.2H77.57a29.46,29.46,0,0,1-4-.1,5.33,5.33,0,0,1-4.73-5A4.92,4.92,0,0,1,73,64.73a25.44,25.44,0,0,1,5.44-.49q29.43-.06,58.86,0a26,26,0,0,1,5.44.5,5.28,5.28,0,0,1,4.13,5A5.58,5.58,0,0,1,142.39,75a21.84,21.84,0,0,1-4,.15Z"/><path class="cls-1" d="M107.46,106.2H77.54a27.92,27.92,0,0,1-4-.11,5.31,5.31,0,0,1-4.7-5A4.9,4.9,0,0,1,73,95.73a25.38,25.38,0,0,1,5.44-.49q29.43-.06,58.86,0a25.3,25.3,0,0,1,5.43.51,5.29,5.29,0,0,1,4.11,5,5.58,5.58,0,0,1-4.48,5.29,22,22,0,0,1-4,.15Z"/></svg>