<svg width="21px" height="38px" viewBox="0 0 21 38" version="1.1" xmlns="http://www.w3.org/2000/svg" xmlns:xlink="http://www.w3.org/1999/xlink" id="SkuZzPdFf">
    <style type="text/css">
        @-webkit-keyframes ryxdZMDOtM_HkNfMwuFf_Animation{0%{-webkit-transform: translate(0px, 0px);transform: translate(0px, 0px);}2%{-webkit-transform: translate(0px, -15px);transform: translate(0px, -15px);}4%{-webkit-transform: translate(0px, 0px);transform: translate(0px, 0px);}5%{-webkit-transform: translate(0px, -5px);transform: translate(0px, -5px);}6%{-webkit-transform: translate(0px, 0px);transform: translate(0px, 0px);}100%{-webkit-transform: translate(0px, 0px);transform: translate(0px, 0px);}}@keyframes ryxdZMDOtM_HkNfMwuFf_Animation{0%{-webkit-transform: translate(0px, 0px);transform: translate(0px, 0px);}2%{-webkit-transform: translate(0px, -15px);transform: translate(0px, -15px);}4%{-webkit-transform: translate(0px, 0px);transform: translate(0px, 0px);}5%{-webkit-transform: translate(0px, -5px);transform: translate(0px, -5px);}6%{-webkit-transform: translate(0px, 0px);transform: translate(0px, 0px);}100%{-webkit-transform: translate(0px, 0px);transform: translate(0px, 0px);}}#SkuZzPdFf *{-webkit-animation-duration: 10s;animation-duration: 10s;-webkit-animation-iteration-count: infinite;animation-iteration-count: infinite;-webkit-animation-timing-function: cubic-bezier(0, 0, 1, 1);animation-timing-function: cubic-bezier(0, 0, 1, 1);transform-box: fill-box;-webkit-transform-origin: 50% 50%;transform-origin: 50% 50%;}#ryxdZMDOtM{stroke: none;stroke-width: 1;fill: none;}#H1-uZzwutM{fill: #FFFFFF;}#ryxdZMDOtM_HkNfMwuFf{-webkit-animation-name: ryxdZMDOtM_HkNfMwuFf_Animation;animation-name: ryxdZMDOtM_HkNfMwuFf_Animation;-webkit-transform-origin: undefined;transform-origin: undefined;}
    </style>
    <title>
        Fill 1 Copy
    </title>
    <desc>
        Created with Sketch.
    </desc>
    <defs/>
    <g id="ryxdZMDOtM_HkNfMwuFf" data-animator-group="true" data-animator-type="0">
        <g id="ryxdZMDOtM" fill-rule="evenodd">
            <path d="M13.5000477,17.0860744 L12.3923492,17.0860744 C12.3923492,17.2782646 12.3892298,17.457957 12.3933148,17.6375767 C12.3971769,17.8132726 12.374821,17.9912938 12.4046042,18.1506409 L13.5000477,18.1506409 L13.5000477,17.0860744 Z M10.4484921,16.9267273 L11.4914251,16.9267273 L11.4914251,16 L19.7384091,16 L19.7384091,16.9233122 L21,16.9233122 L21,21.4331331 C20.8919337,21.4331331 20.7831246,21.4412712 20.6758753,21.4317525 C20.1255168,21.3829238 19.5853337,21.5230883 19.0357922,21.5089192 C18.4792692,21.4946049 17.9220776,21.5057948 17.3652575,21.5057948 L15.6778629,21.5057948 L15.6778629,22.7340681 L18.615559,22.7340681 L18.615559,23.4585052 C17.3143066,23.4585052 16.0184761,23.4587959 14.7225714,23.4560347 C14.6985071,23.4560347 14.6745171,23.4196312 14.6321819,23.3854075 L14.6321819,25.8570678 L16.6160718,25.8570678 L16.6160718,27.6669254 L15.6630085,27.6669254 L15.6630085,26.7505161 L14.6430256,26.7505161 C14.6485218,26.7445578 14.6388664,26.7526233 14.6325532,26.7627232 C14.6266857,26.7720966 14.621041,26.7835771 14.621041,26.7940404 C14.6205211,27.9302514 14.6205211,29.0664623 14.6205211,30.2152438 L13.5473593,30.2152438 C13.5090347,30.2881961 13.4773204,30.3482873 13.4226559,30.4523389 L13.4226559,31.6769065 L12.3307774,31.6769065 L12.3307774,32.7579672 L11.3178505,32.7579672 C11.2663797,32.8176951 11.2054021,32.8566418 11.2086701,32.8894849 C11.234294,33.1473612 11.143756,33.4102512 11.2591753,33.6668197 C11.2915581,33.7388274 11.2480344,33.8436783 11.2385276,33.9334155 C11.2273867,34.0377577 11.1684887,34.1721091 11.2138691,34.2399752 C11.3064125,34.3786137 11.274624,34.515581 11.275738,34.6520396 C11.2812342,35.3421078 11.2782633,36.0322486 11.2782633,36.7223167 L11.2782633,36.9804837 L12.7504907,36.9804837 L12.7504907,37.9774749 C12.7559126,37.9724612 12.7478912,37.9821979 12.7375673,37.9885195 C12.7281347,37.9942597 12.7162512,37.9994914 12.7054817,37.9994914 C11.9649116,38 11.2243415,38 10.4643864,38 C10.4643864,37.0329455 10.4638665,36.079842 10.4671345,35.1268838 C10.467283,35.1021789 10.5092469,35.0776919 10.5568555,35.0256661 C10.4623068,34.9958021 10.3872916,34.9536584 10.3110139,34.9514785 C10.0267734,34.9432677 9.74208734,34.9482087 9.43148018,34.9482087 L9.43148018,33.8686012 L8.23903686,33.8686012 L8.23903686,34.9443577 L7.28151714,34.9443577 L7.28151714,35.8867799 C7.07786223,35.8994957 6.88430836,35.8908489 6.69164577,35.8924475 C6.49534383,35.8941187 6.29911616,35.8928108 6.09115345,35.8928108 L6.09115345,36.9740895 L7.40614622,36.9740895 L7.40614622,37.9848137 L5.11699671,37.9848137 L5.11699671,33.871871 L4.35109976,33.871871 C4.32710978,33.8502178 4.31648883,33.843315 4.30965577,33.8337963 C4.30326834,33.8249315 4.29725228,33.8133057 4.297178,33.8028424 C4.2966581,33.1024563 4.2966581,32.4019975 4.2966581,31.689041 L2.11646619,31.689041 C2.06856049,31.6421742 2.0335782,31.6078778 1.98552396,31.5609384 L1.98552396,30.5908321 L0.967695045,30.5908321 L0.967695045,29.7912628 C0.800062247,29.7906088 0.643867399,29.7896642 0.487746823,29.7893009 C0.328729624,29.7889376 0.169712424,29.7892282 0,29.7892282 L0,23.7025032 L0.860148616,23.7025032 C0.881910427,23.8134576 0.903523695,23.9236854 0.929073399,24.0539678 C0.822492511,24.5572227 0.909168397,25.0936114 0.875003095,25.6548503 C0.963387246,25.6788287 1.03929363,25.7153775 1.11616556,25.7173394 C1.39936621,25.7245329 1.68293822,25.7201732 1.98017634,25.7201732 L1.98017634,26.717237 C2.15776164,26.7560384 2.32821679,26.7321327 2.49584959,26.7364197 C2.66727028,26.7408521 2.83891378,26.737437 3.02310933,26.737437 L3.02310933,27.8828759 L5.32941576,27.8828759 L5.32941576,26.960363 L6.37338855,26.960363 L6.37338855,25.8060593 L7.91639758,25.8060593 C7.95405368,25.6321799 7.93088069,25.465276 7.93503995,25.3009152 C7.93934775,25.1332847 7.93600549,24.9654362 7.93600549,24.7854531 L9.34718101,24.7854531 C9.34718101,24.4876128 9.34279894,24.2011804 9.3501519,23.9148933 C9.35208299,23.8398338 9.39033327,23.7657189 9.4131349,23.6871716 L10.4484921,23.6871716 L10.4484921,16.9267273 Z" id="H1-uZzwutM"/>
        </g>
    </g>
</svg>