<?xml version="1.0" standalone="no"?>
<!DOCTYPE svg PUBLIC "-//W3C//DTD SVG 20010904//EN"
 "http://www.w3.org/TR/2001/REC-SVG-20010904/DTD/svg10.dtd">
<svg version="1.0" xmlns="http://www.w3.org/2000/svg"
 width="218.000000pt" height="218.000000pt" viewBox="0 0 218.000000 218.000000"
 preserveAspectRatio="xMidYMid meet">
<metadata>
Created by potrace 1.11, written by Peter Selinger 2001-2013
</metadata>
<g transform="translate(0.000000,218.000000) scale(0.100000,-0.100000)"
fill="#000000" stroke="none">
<path d="M1274 2171 c-60 -17 -91 -72 -103 -183 -2 -20 -38 -4 -56 24 -34 53
-68 72 -132 72 -52 -1 -59 -3 -85 -34 -17 -21 -33 -56 -40 -92 -8 -40 -18 -60
-30 -64 -10 -3 -25 -18 -33 -34 -16 -31 -26 -36 -97 -45 -26 -3 -69 -10 -95
-15 -26 -6 -61 -13 -78 -16 -79 -14 -247 -68 -254 -83 -26 -50 -41 -299 -28
-443 l6 -67 -59 -3 -60 -3 47 -80 47 -80 2 -210 c1 -116 3 -215 3 -221 1 -6
39 -10 106 -9 87 0 105 -2 105 -15 1 -12 3 -11 11 3 8 13 14 15 30 7 12 -7 19
-7 19 -1 0 16 29 1 60 -29 22 -21 26 -30 17 -39 -9 -9 -8 -11 6 -6 20 8 22 -5
4 -25 -10 -12 -9 -12 6 -1 15 12 23 8 65 -32 26 -26 72 -65 102 -88 30 -22 54
-46 52 -52 -2 -7 0 -9 3 -5 10 10 47 -11 40 -22 -3 -6 0 -7 8 -4 8 3 21 -1 28
-9 8 -7 17 -14 22 -15 23 -4 85 -47 80 -55 -3 -6 -1 -7 6 -3 6 4 22 2 34 -6
28 -17 83 -23 92 -9 3 6 15 11 25 11 10 0 20 4 22 9 2 5 12 11 23 13 10 1 26
9 35 16 8 8 60 43 115 79 55 36 110 77 123 90 12 13 27 21 32 18 6 -4 9 -1 8
7 -2 7 3 12 10 10 8 -1 11 1 8 6 -3 5 15 27 39 49 24 23 40 45 37 49 -4 4 -2
4 5 1 6 -4 22 -2 35 3 23 10 23 10 1 6 -28 -5 -29 -1 -2 27 17 17 21 18 16 5
-8 -23 2 -23 20 -1 14 17 14 17 9 1 -3 -10 -9 -25 -12 -33 -3 -8 -1 -15 6 -15
6 0 9 4 6 9 -9 15 19 42 47 45 15 2 27 0 27 -4 0 -4 7 -10 14 -13 9 -4 13 -1
10 6 -3 9 20 12 86 12 l90 -1 0 223 0 223 38 63 c61 100 61 97 -9 97 l-60 0 7
53 c8 62 7 229 -1 301 -4 28 -8 67 -10 86 -11 88 -7 84 -115 114 -93 26 -99
30 -105 58 -6 27 -9 29 -38 22 -18 -3 -36 -7 -41 -8 -5 0 -24 46 -43 104 -36
110 -59 143 -98 136 -17 -3 -30 6 -56 41 -47 62 -101 88 -155 74z"/>
<path d="M399 578 c-5 -19 -8 -50 -4 -46 7 7 15 48 9 48 -2 0 -4 -1 -5 -2z"/>
<path d="M460 576 c0 -2 7 -9 15 -16 9 -7 15 -8 15 -2 0 5 -7 12 -15 16 -8 3
-15 4 -15 2z"/>
<path d="M1715 570 c-3 -5 -1 -10 4 -10 6 0 11 5 11 10 0 6 -2 10 -4 10 -3 0
-8 -4 -11 -10z"/>
<path d="M500 549 c-10 -17 -9 -20 1 -14 9 6 11 3 6 -9 -4 -10 -3 -15 4 -11 5
4 7 15 4 26 -7 20 9 27 18 9 3 -6 4 -5 3 2 -4 21 -24 20 -36 -3z"/>
<path d="M420 538 c0 -4 11 -7 25 -6 33 3 33 16 0 14 -14 0 -25 -4 -25 -8z"/>
<path d="M1700 545 c0 -7 30 -13 34 -7 3 4 -4 9 -15 9 -10 1 -19 0 -19 -2z"/>
<path d="M550 530 c0 -5 5 -10 11 -10 5 0 7 5 4 10 -3 6 -8 10 -11 10 -2 0 -4
-4 -4 -10z"/>
<path d="M1746 518 c3 -5 10 -6 15 -3 13 9 11 12 -6 12 -8 0 -12 -4 -9 -9z"/>
<path d="M473 505 c0 -8 4 -12 9 -9 5 3 6 10 3 15 -9 13 -12 11 -12 -6z"/>
<path d="M1596 502 c-3 -5 1 -9 9 -9 8 0 12 4 9 9 -3 4 -7 8 -9 8 -2 0 -6 -4
-9 -8z"/>
<path d="M610 439 c0 -5 5 -7 10 -4 6 3 10 8 10 11 0 2 -4 4 -10 4 -5 0 -10
-5 -10 -11z"/>
<path d="M676 378 c3 -5 10 -6 15 -3 13 9 11 12 -6 12 -8 0 -12 -4 -9 -9z"/>
<path d="M815 280 c-3 -5 -1 -10 4 -10 6 0 11 5 11 10 0 6 -2 10 -4 10 -3 0
-8 -4 -11 -10z"/>
<path d="M1335 280 c-3 -5 -1 -10 4 -10 6 0 11 5 11 10 0 6 -2 10 -4 10 -3 0
-8 -4 -11 -10z"/>
<path d="M847 219 c7 -7 15 -10 18 -7 3 3 -2 9 -12 12 -14 6 -15 5 -6 -5z"/>
<path d="M947 219 c7 -7 15 -10 18 -7 3 3 -2 9 -12 12 -14 6 -15 5 -6 -5z"/>
<path d="M1120 160 c-8 -5 -10 -10 -5 -10 6 0 17 5 25 10 8 5 11 10 5 10 -5 0
-17 -5 -25 -10z"/>
<path d="M1190 161 c0 -6 4 -13 10 -16 6 -3 7 1 4 9 -7 18 -14 21 -14 7z"/>
</g>
</svg>
