<?xml version="1.0" encoding="UTF-8"?>
<svg width="126px" height="33px" viewBox="0 0 126 33" version="1.1" xmlns="http://www.w3.org/2000/svg" xmlns:xlink="http://www.w3.org/1999/xlink">
    <!-- Generator: Sketch 49.2 (51160) - http://www.bohemiancoding.com/sketch -->
    <title>Group 7</title>
    <desc>Created with Sketch.</desc>
    <defs>
        <polygon id="path-1" points="0.0500548801 0.0484148649 31.0874422 0.0484148649 31.0874422 33 0.0500548801 33"></polygon>
        <polygon id="path-3" points="0 0.0395851351 91.669763 0.0395851351 91.669763 32.9999703 0 32.9999703"></polygon>
    </defs>
    <g id="Page-1" stroke="none" stroke-width="1" fill="none" fill-rule="evenodd">
        <g id="Group-7">
            <g id="Group-4">
                <g id="Group-5">
                    <g id="Page-1">
                        <g id="Group-3" transform="translate(94.898734, 0.000000)">
                            <mask id="mask-2" fill="white">
                                <use xlink:href="#path-1"></use>
                            </mask>
                            <g id="Clip-2"></g>
                            <path d="M2.59465786,0.0484148649 L2.18543838,1.12857027 C2.12499216,1.28814459 2.06381414,1.44853649 2.00241658,1.6095973 C1.86374152,1.97363784 1.72023663,2.35016486 1.58068342,2.72743514 C1.46747481,3.03342838 1.35770564,3.34127973 1.25152225,3.63902297 C1.02934945,4.26163784 0.819543967,4.84969189 0.581564399,5.42184054 C0.317825665,6.05590135 0.0484521132,6.83028649 0.0500620611,7.76573243 C0.0579654415,12.6145027 0.0572336471,17.545327 0.056575032,22.313827 L0.0562091348,28.9342662 L6.97539922,28.9342662 L6.97539922,33.0000297 L12.8527335,33.0000297 L16.8822135,28.9071378 C18.5432406,28.9069149 22.5894055,28.9069149 22.5894055,28.9069149 L23.0790492,28.3905838 C24.0675572,27.3480365 25.1048759,26.3060838 26.1080198,25.2985432 C27.6327136,23.7670905 29.2092185,22.1835365 30.6594888,20.5530095 L31.0874422,20.0716851 L31.0874422,0.0484148649 L2.59465786,0.0484148649 Z" id="Fill-1" fill="#FFFFFF" mask="url(#mask-2)"></path>
                        </g>
                        <g id="Group-6">
                            <mask id="mask-4" fill="white">
                                <use xlink:href="#path-3"></use>
                            </mask>
                            <g id="Clip-5"></g>
                            <path d="M90.982609,9.43105811 C90.9458813,9.39976757 90.8956843,9.35680811 90.8793445,9.34030811 L90.1748203,8.63058514 C89.1100848,7.55830811 88.0090633,6.44938919 86.9379244,5.35228784 C86.4349241,4.83707162 85.8115836,4.57582162 85.0851993,4.57582162 L85.0628977,4.57589595 C84.3977509,4.58042973 83.6876328,4.58251081 82.7603871,4.58251081 C82.3693364,4.58251081 81.9781385,4.58221351 81.5870142,4.58184189 C81.5871614,4.50402432 81.5873822,4.42538919 81.5875294,4.34534189 C81.5878974,4.22679459 81.5882654,4.10809865 81.5882654,3.98947703 L81.5882654,0.0449364865 L75.788968,0.0454567568 C74.2542062,0.0454567568 72.4362952,0.0447135135 70.590636,0.0396594595 L70.5826869,0.0396594595 C69.8907487,0.0396594595 69.2887529,0.29592973 68.7933337,0.801409459 C68.1398896,1.46817297 67.4706946,2.14437568 66.8234332,2.79820676 C66.2449167,3.38261892 65.6491771,3.98457162 65.0602089,4.58429459 C64.5044356,4.58117297 63.9476318,4.58087568 63.3808916,4.58087568 L63.0328984,4.58087568 C62.3679724,4.58087568 61.7173989,4.58050405 61.0694014,4.57559865 L61.0483511,4.57552432 C60.6209407,4.57552432 60.2305524,4.67526757 59.881308,4.87304459 L59.881308,4.72380135 L58.3425717,4.60213243 C58.0854777,4.58176757 57.8539975,4.57916622 57.6811786,4.57916622 C57.5934442,4.57916622 57.5063724,4.57990946 57.4197421,4.58080135 C57.344373,4.58154459 57.2692247,4.58228784 57.1943709,4.58228784 L57.1149536,4.58199054 C56.9600201,4.58050405 56.8051602,4.58005811 56.6502267,4.58005811 C56.5339346,4.58005811 55.9590981,4.58109865 55.9590981,4.58109865 L55.3835257,4.58109865 C55.38198,4.29963243 55.3825688,4.01340946 55.3831577,3.73506486 C55.3835257,3.58307162 55.3838201,3.43107838 55.3838201,3.27908514 L55.3838201,1.7701527 L55.3894139,0.330564865 L53.9803654,0.10617973 L53.9529116,0.100828378 C53.8598779,0.0823216216 53.6866909,0.0478351351 53.474789,0.0466459459 C53.1758888,0.0450108108 52.8768413,0.0445648649 52.5779411,0.0445648649 L34.9744032,0.0449364865 L34.8426545,1.58523378 C34.8130663,1.93099054 34.8163048,2.24597703 34.8192489,2.52387568 C34.8203529,2.62666622 34.8216042,2.72893649 34.8205737,2.83105811 C34.8178504,3.10895676 34.8185129,3.38640946 34.8191017,3.65472027 C34.8193225,3.7697 34.8196169,3.88460541 34.8196169,3.99958514 L34.8196169,4.58042973 L31.7080663,4.58072703 C26.7127303,4.58102432 21.5516412,4.58132162 16.4667308,4.58496351 C15.9746237,4.08572703 15.4815597,3.58760541 14.9884222,3.08940946 C14.2471702,2.34051757 13.480599,1.56613243 12.7319132,0.802004054 C12.2360523,0.296078378 11.6342773,0.0395851351 10.9430752,0.0395851351 L10.9350525,0.0395851351 C9.10860354,0.0447135135 7.31152205,0.0454567568 5.79449851,0.0454567568 L0.100894467,0.0449364865 L0.0242741431,1.64922703 C0.0224340777,1.68965946 0.0201523965,1.72682162 0.0180915233,1.7619027 C0.0124241217,1.85755811 0.00602069407,1.96592297 0.00602069407,2.08811216 L0.0057262836,6.13001757 C0.00550547575,11.2717743 0.00521106528,16.5885649 -1.47205234e-05,21.8175784 C-0.000677144076,22.4958622 0.243241929,23.0839905 0.724603044,23.5656122 C1.96340869,24.8053419 3.28199957,26.1277203 4.58528111,27.4660784 C4.98958029,27.8813284 5.45423361,28.241727 6.0473235,28.6003419 C6.52868461,28.8913959 7.0093833,29.1837135 7.49000839,29.4759568 C8.09413867,29.8434905 8.69834255,30.2108757 9.30401849,30.5758081 C9.65083402,30.7848081 10.0020657,30.9918757 10.3415946,31.1921797 C10.7143918,31.4119568 11.0999959,31.6393892 11.4721308,31.8648892 C11.7847947,32.0542676 12.0925272,32.251227 12.4182924,32.4597811 C12.5659393,32.5542473 12.7136597,32.6487878 12.8616746,32.7425851 L13.2684026,32.9999703 L22.0416874,32.9999703 L22.0416874,32.8552608 L22.2241483,32.9999703 L47.2259268,32.9999703 L47.2496269,32.3623419 C47.281644,32.3983892 47.3138083,32.4340649 47.3465615,32.4692203 L47.8408031,32.9999703 L57.0744722,32.9999703 L57.2244007,32.2310108 L57.2441262,32.2509297 L57.6175859,32.9999703 L74.4280556,32.9999703 L74.8686409,32.6738351 C75.0307138,32.5538014 75.1924924,32.4335446 75.3541973,32.3132878 C75.4595963,32.23495 75.5660257,32.1558689 75.6729703,32.0764905 L75.6742951,32.9999703 L83.0638507,32.9999703 L83.5151083,32.647227 C83.5778177,32.5982473 83.6395703,32.5480041 83.7013965,32.4977608 C83.7894989,32.4260378 83.872817,32.3583284 83.9325087,32.3181189 C86.3017034,30.7225986 88.6341703,29.1570311 90.6162152,27.8274432 C90.6323342,27.8208284 90.6483059,27.8140649 90.6641305,27.8070784 L91.669763,27.367227 L91.669763,10.0376932 L91.1016244,9.53429459 C91.0623943,9.49943649 91.0225016,9.4652473 90.982609,9.43105811" id="Fill-4" fill="#FFFFFF" mask="url(#mask-4)"></path>
                        </g>
                        <path d="M43.831514,6.164197 L43.831514,3.7481804 C43.4082988,3.690731 38.7134029,3.70262482 38.4418398,3.75910177 C38.3853377,4.27240619 38.403339,5.90784401 38.4688051,6.164197 L43.831514,6.164197 Z M38.4449258,8.36829414 C38.3823987,8.93725266 38.4040003,24.3706452 38.4695398,24.6559473 C40.1397701,24.6559473 41.8150702,24.6561717 43.4902968,24.6554237 C43.5879449,24.6554237 43.6855195,24.6484669 43.7830206,24.6430063 C43.7931601,24.6424078 43.8030057,24.6308132 43.8122636,24.6235572 C43.8218888,24.616002 43.8306323,24.6073996 43.8333509,24.6049311 L43.8333509,8.36829414 L38.4449258,8.36829414 Z M70.059023,13.8838106 C70.069236,13.7950184 70.0795225,13.7470691 70.079449,13.6991198 C70.0768039,11.941602 70.0731302,10.1840842 70.0689421,8.42656638 C70.0689421,8.41601903 70.0597578,8.40442442 70.0526307,8.39522354 C70.0451363,8.38557384 70.0348498,8.37824306 70.0198609,8.36425473 C69.99172,8.36058933 69.9557174,8.35176247 69.9196412,8.35176247 C67.1889484,8.35079002 64.4582556,8.3522861 61.7275628,8.34637659 C61.5604075,8.34600257 61.4559263,8.41714109 61.3483591,8.52710283 C60.3025181,9.59560185 59.2557219,10.6632032 58.2040029,11.7257927 C58.0814468,11.8495932 58.0314839,11.9762362 58.0317778,12.1515766 C58.0360394,15.0313774 58.0361863,17.9111782 58.0314105,20.790979 C58.0310431,20.9687131 58.0878392,21.09199 58.2092196,21.2146684 C59.2779848,22.295136 60.3434436,23.378895 61.4038326,24.4678903 C61.5346913,24.6023129 61.6647418,24.6604356 61.8526905,24.6600615 C64.5099084,24.6540772 67.1671264,24.6562465 69.8243443,24.6546757 C69.9051667,24.6546009 69.9860625,24.635077 70.060419,24.6255021 L70.060419,19.0507409 L68.982543,19.0507409 L67.8804937,19.0507409 L66.8151819,19.0507409 L65.7130591,19.0507409 C65.3579551,19.0507409 65.0027042,19.0568001 64.6478207,19.0490953 C64.2856632,19.0413156 63.9208606,19.0835051 63.5407017,19.0173036 C63.5407017,17.4037085 63.5404813,15.8092632 63.541216,14.2148927 C63.5412895,14.1280454 63.5488574,14.0411233 63.5548089,13.9544255 C63.5554701,13.9441774 63.5670057,13.9340789 63.5747205,13.9251024 C63.5826558,13.9158267 63.5922076,13.9079723 63.6177033,13.8838106 L70.059023,13.8838106 Z M55.9548643,8.350416 L55.5787465,8.350416 L51.9068409,8.350416 C51.8211692,8.350416 51.7351301,8.35512865 51.6498993,8.34877032 C51.4775273,8.33590405 51.4343241,8.29416346 51.4208782,8.12533105 C51.4139716,8.03870812 51.4191148,7.95103794 51.4191148,7.86381659 C51.4190413,6.60524084 51.4194822,5.3465903 51.4183066,4.08808936 C51.4181596,3.96862752 51.4076527,3.84931529 51.4020686,3.73217237 L45.9974056,3.73217237 C45.9920419,3.84609872 45.9835189,3.94289497 45.9835189,4.03969123 C45.9828576,9.63464949 45.9841067,15.2295329 45.9784491,20.8244912 C45.9782287,21.0307256 46.0428865,21.1709829 46.1827827,21.3122127 C47.2173085,22.3559516 48.2476464,23.4041039 49.2720327,24.4582406 C49.4128105,24.603061 49.5543231,24.6607348 49.7535869,24.6600615 C51.7241089,24.6533292 53.6946309,24.6562465 55.6652264,24.6551245 C55.7594212,24.6551245 55.8536159,24.6434551 55.9586849,24.6364235 C55.9646364,24.5532416 55.9727921,24.4928 55.9727186,24.4324333 C55.9698531,22.663246 55.9661794,20.8941336 55.9619913,19.1250212 C55.9619913,19.1144739 55.9525131,19.1034029 55.9456799,19.093828 C55.9385528,19.0838043 55.9293685,19.0752766 55.8968926,19.0390715 L51.4576156,19.0390715 C51.3973662,18.6263784 51.4068445,14.1920775 51.4701798,13.8847083 L52.5961819,13.8847083 L53.6977169,13.8847083 C54.077141,13.8847083 54.4565651,13.8879997 54.8359892,13.8837358 C55.2100497,13.8796216 55.5857266,13.9026612 55.9548643,13.8698223 L55.9548643,8.350416 Z M9.09782155,3.73015266 C8.99407506,3.72252266 8.9346339,3.71436904 8.87511928,3.71444384 C7.1619062,3.717436 5.44861964,3.721251 3.73540656,3.72566443 C3.72512008,3.72566443 3.71409885,3.73531413 3.70484102,3.7424205 C3.69521582,3.74990089 3.68735401,3.7597002 3.66178476,3.78558236 L3.66178476,4.02787221 C3.66178476,9.62275566 3.66296036,15.2177139 3.65737627,20.8125974 C3.65715584,21.0323713 3.72982247,21.1802586 3.87897642,21.3305396 C4.89711741,22.3557272 5.91143772,23.3849541 6.91539807,24.4244292 C7.08615362,24.6011909 7.2585991,24.6611836 7.49408599,24.660286 C9.41567375,24.652656 11.3372615,24.6559473 13.2588493,24.6559473 L13.6110877,24.6559473 C13.6734678,24.2434038 13.6648713,19.3572125 13.6066792,19.0758751 C13.5960253,19.0708632 13.585445,19.0614379 13.5747176,19.0614379 C12.1429867,19.0572489 10.7111823,19.0539575 9.27945138,19.0499181 C9.2431548,19.0497685 9.20671127,19.0428117 9.1707086,19.0367526 C9.1599078,19.0349573 9.14984174,19.025906 9.14058391,19.0187997 C9.13088523,19.0112445 9.12243562,19.0019688 9.11633721,18.9961341 L9.11633721,13.8847083 L10.2633531,13.8847083 L11.364888,13.8847083 C11.7443122,13.8847083 12.1238098,13.8888225 12.5031604,13.8835114 C12.8781761,13.8784248 13.2547347,13.9071495 13.6395959,13.8632396 C13.6445922,13.7659197 13.6517928,13.6929111 13.6516458,13.6197529 C13.6484864,11.8880424 13.6445922,10.1562571 13.6401103,8.42454668 C13.6401103,8.41414893 13.6301177,8.40300315 13.6228437,8.39380227 C13.6152023,8.38422737 13.6052097,8.37659737 13.5774362,8.350416 L13.2322514,8.350416 C12.0083073,8.350416 10.7843633,8.350416 9.5604192,8.3503412 C9.47474753,8.3503412 9.3889289,8.35206169 9.30340418,8.34899473 C9.17107597,8.34428208 9.10259741,8.27119867 9.09899714,8.13722487 C9.09671942,8.05000351 9.09782155,7.96278215 9.09782155,7.8755608 C9.09782155,6.62947731 9.09782155,5.38339382 9.09782155,4.13723553 L9.09782155,3.73015266 Z M77.640158,13.9193425 C78.2042245,13.8511213 81.936306,13.872216 82.2149226,13.9454491 L82.2149226,24.6153288 C82.6156545,24.6780893 87.4158399,24.6689632 87.7142948,24.6040334 L87.7142948,24.3155896 C87.7142948,20.277151 87.7128253,16.2387125 87.7185563,12.2002739 C87.7189237,11.9825197 87.6520616,11.831341 87.5018055,11.6800875 C86.4832971,10.6547504 85.4691238,9.62477537 84.4642082,8.58567429 C84.2949222,8.41078276 84.1247544,8.34450649 83.8868429,8.34562855 C82.0014782,8.3541562 80.1161135,8.34914434 78.2306754,8.3522861 C78.0331015,8.35258532 77.8444181,8.33635287 77.6477994,8.21472172 L77.6477994,7.11345859 L77.6477994,5.99162439 C77.6477994,5.60526221 77.6507384,5.21882522 77.6469177,4.83246304 C77.6433175,4.4640538 77.6642578,4.09407367 77.6325901,3.7347157 L72.1696616,3.7347157 C72.1579056,3.78977138 72.1438719,3.82500402 72.1438719,3.86031146 C72.1457088,10.7653854 72.1485008,17.6703096 72.1518806,24.5753087 C72.1518806,24.5863049 72.1588608,24.5984979 72.1654,24.6080728 C72.1723067,24.6180966 72.1825197,24.6257266 72.1952308,24.6382188 L77.640158,24.6382188 L77.640158,13.9193425 Z M28.8270679,19.033536 C28.8075236,18.9915711 28.8014252,18.9811733 28.7978984,18.9698779 C28.7941511,18.9581337 28.7918,18.9456415 28.7907713,18.9332988 C28.788861,18.9084639 28.7872445,18.8835542 28.7872445,18.8587193 C28.7869506,15.4434721 28.7868771,12.0282249 28.7868037,8.61282811 C28.7868037,8.58791841 28.7870976,8.56300871 28.7864363,8.53809901 C28.7858485,8.51318931 28.7846729,8.48835441 28.7826891,8.46351951 C28.7817339,8.45117687 28.7797501,8.43853501 28.7757824,8.4269404 C28.7720352,8.41579462 28.7662307,8.40487325 28.7593975,8.39529835 C28.7522705,8.38534943 28.7427922,8.377121 28.7363999,8.37031384 L23.2809658,8.37031384 L23.2809658,9.72800476 L23.2809658,11.0366991 L23.2809658,12.3828702 L23.2809658,13.6916394 L23.2809658,15.0378105 L23.2809658,16.3839816 C23.2809658,16.820238 23.2830965,17.2564944 23.280378,17.692676 C23.2775859,18.1369364 23.2922809,18.58187 23.2719284,19.0196973 C22.726598,19.0822334 21.4849465,19.0638316 21.2113262,18.9870828 L21.2113262,8.39155815 C20.8108148,8.32752601 16.011511,8.3370261 15.7248122,8.40098344 C15.7212119,8.47062588 15.7140849,8.54385891 15.7140849,8.61701713 C15.7171708,13.9390907 15.7208445,19.2610895 15.7251796,24.5830883 C15.725253,24.5934113 15.7351721,24.6046319 15.7424461,24.6138327 C15.7500875,24.6234824 15.7599332,24.6311872 15.7858698,24.6559473 L15.9866031,24.6559473 C21.4960412,24.6559473 27.0053324,24.6549749 32.5146971,24.6599867 C32.7141814,24.6601364 32.8554,24.6022381 32.9961778,24.4575674 C34.0468682,23.3768005 35.1027018,22.3011203 36.1650012,21.2321725 C36.3096731,21.0866789 36.3576522,20.9390908 36.3574318,20.7392895 C36.3530968,16.7132684 36.3542724,12.6872473 36.3533172,8.66122624 C36.3532437,8.56547724 36.3396509,8.46965343 36.3316421,8.36320747 C36.2259118,8.35827041 36.1419301,8.35071522 36.0579483,8.35086483 C34.3442944,8.35430581 32.6306404,8.35856963 30.916913,8.36343188 C30.9071409,8.36350669 30.8967075,8.37502649 30.8877435,8.38258168 C30.8784857,8.3905857 30.8706974,8.40038501 30.8355029,8.43778697 L30.8355029,19.033536 L28.8270679,19.033536 Z M82.2787723,31.3902439 L77.1355328,31.3902439 C77.1350185,30.967901 77.1378105,30.5455582 77.1329612,30.1231405 C77.1283322,29.710597 77.1530933,29.2966321 77.1162089,28.869801 C76.4789615,29.3308175 75.8662547,29.7693928 75.2586177,30.2150745 C74.7301866,30.6026336 74.2074865,30.9981966 73.6822148,31.3902439 L69.0532993,31.3902439 C69.0532258,30.9796453 69.0557974,30.5689718 69.0521237,30.1583732 C69.0485234,29.7588455 69.0676269,29.358121 69.0398534,28.9603886 C68.2273685,29.7715621 67.4342809,30.5633615 66.6417077,31.3557593 C66.6338459,31.3636137 66.6328907,31.3785745 66.6286292,31.3902439 L58.4729208,31.3902439 C58.46212,31.3684012 58.4560216,31.341771 58.4398572,31.3252393 C57.6746166,30.5440621 56.9088617,29.7633337 56.1410495,28.9847747 C56.1123209,28.9556011 56.0625049,28.9478963 56.0114399,28.9252307 C55.9605218,29.1868948 55.9139388,29.4256689 55.8677231,29.6645178 C55.7564087,30.2397598 55.6451678,30.8150019 55.5339268,31.3902439 L48.4068664,31.3902439 C48.2992992,31.2737742 48.2001816,31.1473556 48.082328,31.0427049 C47.8362607,30.8239783 47.5754984,30.6223818 47.3295781,30.4034308 C47.0370013,30.1428887 46.7550048,29.8698545 46.4658078,29.6053479 C46.2852801,29.4404053 46.1020338,29.2785296 45.9157016,29.1206185 C45.8357609,29.0527714 45.7447256,28.9985386 45.6479592,28.9305418 C45.4773506,29.3542312 45.6014496,29.7744795 45.5315016,30.1703418 C45.4592758,30.5786215 45.4829347,30.9836099 45.4678724,31.3902439 L37.3857123,31.3902439 C37.3792465,31.2791601 37.3785853,31.1674031 37.3651394,31.0571421 C37.3252425,30.7292018 37.2752062,30.4023087 37.2388361,30.0739943 C37.2051111,29.76857 37.1890202,29.4609763 37.1536053,29.1557764 C37.1452291,29.0832914 37.0909312,29.0161175 37.043393,28.9163291 C36.9375157,29.0611494 36.8653634,29.1748514 36.7786631,29.2755374 C36.3867483,29.73042 35.9900575,30.1809639 35.5964528,30.6342756 C35.427828,30.8284666 35.2596441,31.0231063 35.097779,31.2230572 C35.0623641,31.2668175 35.0548697,31.3339914 35.0345171,31.3902439 L22.6907423,31.3902439 C22.6541518,31.3610704 22.6218964,31.3211999 22.58053,31.3042194 C21.8203592,30.9923619 21.0590128,30.6832722 20.2660722,30.3606429 L20.2660722,31.3902439 L13.6532623,31.3902439 C13.1819211,31.0893826 12.7152088,30.7808165 12.2382836,30.4894552 C11.5192587,30.0502815 10.7905351,29.6274898 10.0704081,29.1900366 C8.98555198,28.5310141 7.9053982,27.8638381 6.82149721,27.20317 C6.41297705,26.9541478 6.03252427,26.677897 5.69409911,26.3275903 C4.41497545,25.0032619 3.12086291,23.6938943 1.82498698,22.3863968 C1.66510571,22.2251944 1.5947168,22.0676573 1.59493722,21.8335959 C1.60162344,15.2141233 1.60030089,8.59472556 1.60096216,1.9754026 C1.60096216,1.86641331 1.61058737,1.75749882 1.61734705,1.61514698 L1.99691813,1.61514698 C4.94781506,1.61514698 7.89871199,1.61828875 10.8495354,1.6097611 C11.1043462,1.60901306 11.277453,1.6921202 11.4542335,1.8739685 C12.7890511,3.24751785 14.136139,4.60864975 15.4736751,5.97943135 C15.6134978,6.12275564 15.7528796,6.18506729 15.9539802,6.18484288 C22.663924,6.17975622 29.3738677,6.18072867 36.0838115,6.17990583 C36.1656624,6.17990583 36.2474399,6.16846083 36.3541254,6.16045681 L36.3541254,5.02096889 L36.3541254,3.89905988 C36.3541254,3.5126229 36.3512599,3.12611111 36.3550071,2.73974893 C36.3586074,2.37096566 36.3382549,2.00083593 36.3709512,1.61514698 L36.8082,1.61514698 L51.6117659,1.61514698 C52.1750241,1.61514698 52.7382823,1.61372571 53.301467,1.61694228 C53.3811137,1.6173911 53.460687,1.64080472 53.5502528,1.65524188 L53.5502528,3.173836 C53.5502528,3.67247885 53.5467995,4.1711217 53.5512815,4.66968974 C53.5558369,5.16406876 53.5301942,5.65949504 53.5709727,6.18065386 L54.6887456,6.18065386 L55.7907949,6.18065386 C56.170366,6.18065386 56.5499371,6.17796092 56.9295081,6.1814019 C57.2916657,6.18469328 57.6552927,6.16591749 58.040007,6.1966619 L58.040007,8.73939632 C58.1646938,8.61739115 58.253231,8.53376038 58.3386088,8.44691304 C59.005687,7.76851641 59.6771002,7.0945332 60.3353613,6.40738451 C60.4934792,6.24244189 60.650495,6.17332308 60.8795896,6.17511838 C62.3243255,6.18611455 63.7692819,6.17474436 65.2140914,6.18618935 C65.4675796,6.18820906 65.6431845,6.10966496 65.8206263,5.92706862 C67.1381773,4.5712478 68.4693946,3.22911609 69.7870926,1.87344487 C69.9637996,1.69159658 70.1376411,1.60908787 70.3922315,1.6098359 C73.3675955,1.61821394 76.343033,1.61514698 79.3183971,1.61514698 L79.7092833,1.61514698 L79.7092833,2.76690274 L79.7092833,3.88888655 C79.7092833,4.27532354 79.7054626,4.66176052 79.710312,5.04819751 C79.7150143,5.41772881 79.6887838,5.78868139 79.7311053,6.18065386 L80.1535857,6.18065386 C81.7208777,6.18065386 83.2881698,6.18626416 84.8553883,6.17534279 C85.1306986,6.17339789 85.3304032,6.24610728 85.5291527,6.45136921 C86.8358294,7.80060728 88.1560255,9.13623105 89.4732092,10.474847 C89.5674774,10.570596 89.6729873,10.6548252 89.773207,10.7443655 L89.773207,26.3035782 C89.7083287,26.3322281 89.6374255,26.3515275 89.5794538,26.3907996 C87.3155467,27.9218111 85.0523009,29.4537952 82.7911124,30.9889957 C82.6123481,31.1104025 82.4492339,31.2559709 82.2787723,31.3902439 Z M117.491668,9.46701393 C117.024588,9.46701393 116.58925,9.45908472 116.154278,9.46925805 C115.728418,9.47913216 115.295798,9.41913943 114.914096,9.50703402 L114.914096,17.1083079 L117.491668,17.1083079 L117.491668,9.46701393 Z M107.796808,17.12656 C108.263227,17.12656 108.698345,17.1271585 109.133389,17.1263356 C109.559764,17.1255876 109.986285,17.1234183 110.375408,17.1219222 L110.375408,9.48578971 L107.796808,9.48578971 L107.796808,17.12656 Z M121.759307,18.7125525 L121.759307,4.32469412 C117.928329,4.16999964 102.123154,4.23350815 101.295533,4.39807675 L101.295533,23.3466545 L106.76265,23.3466545 L106.76265,27.0258099 C108.053235,25.7117297 109.217444,24.5265366 110.410162,23.3122447 L117.239869,23.3122447 C118.775494,21.7493667 120.284888,20.2131937 121.759307,18.7125525 Z M116.830321,27.2707927 C114.913656,27.2707927 113.015947,27.2707927 111.118312,27.2710919 C109.776441,28.6376097 108.434496,30.0038283 107.072714,31.3902439 L103.528066,31.3902439 L103.528066,27.2982458 L96.5809458,27.2982458 L96.5809458,26.4212447 C96.5809458,20.1763153 96.5849134,13.9314607 96.5747004,7.68668093 C96.5736718,7.07695428 96.7484684,6.54150791 96.9770487,5.99050233 C97.3547094,5.0805128 97.6634507,4.14097572 98.0051088,3.21535217 C98.2033439,2.67811051 98.409147,2.143861 98.6076026,1.61866277 L124.405063,1.61866277 L124.405063,19.4221423 C122.030503,22.0984765 119.346467,24.6105414 116.830321,27.2707927 Z" id="Fill-7" fill="#6441A5"></path>
                    </g>
                </g>
            </g>
        </g>
    </g>
</svg>